<svg width="74" height="74" xmlns="http://www.w3.org/2000/svg" xmlns:xlink="http://www.w3.org/1999/xlink" overflow="hidden"><defs><clipPath id="clip0"><rect x="59" y="11" width="74" height="74"/></clipPath></defs><g clip-path="url(#clip0)" transform="translate(-59 -11)"><path d="M96 39.5285C99.4058 39.5285 102.167 36.7676 102.167 33.3619 102.167 29.9561 99.4058 27.1952 96 27.1952 92.5942 27.1952 89.8333 29.9561 89.8333 33.3619 89.8333 36.7676 92.5942 39.5285 96 39.5285ZM96 28.7369C98.5543 28.7369 100.625 30.8076 100.625 33.3619 100.625 35.9162 98.5543 37.9869 96 37.9869 93.4457 37.9869 91.375 35.9162 91.375 33.3619 91.3767 30.8078 93.4459 28.7372 96 28.7338Z" fill="#FFFFFF"/><path d="M126.833 24.1042 125.292 24.1042 125.292 22.4854C125.292 21.2509 124.291 20.25 123.056 20.25L122.902 20.25C122.666 20.2529 122.432 20.2938 122.208 20.371L122.208 20.1729C122.208 18.9384 121.207 17.9375 119.973 17.9375L119.819 17.9375C118.584 17.9375 117.583 18.9384 117.583 20.1729L117.583 24.1042 74.4167 24.1042 74.4167 20.1729C74.4167 18.9384 73.4158 17.9375 72.1813 17.9375L72.0271 17.9375C70.7925 17.9375 69.7917 18.9384 69.7917 20.1729L69.7917 20.371C69.5684 20.2938 69.3342 20.2529 69.0979 20.25L68.9437 20.25C67.7092 20.25 66.7083 21.2509 66.7083 22.4854L66.7083 24.1042 65.1667 24.1042C64.741 24.1042 64.3958 24.4493 64.3958 24.875 64.3958 25.3007 64.741 25.6458 65.1667 25.6458L66.7083 25.6458 66.7083 27.2646C66.7083 28.4991 67.7092 29.5 68.9437 29.5L69.0979 29.5C69.3342 29.4971 69.5684 29.4562 69.7917 29.379L69.7917 29.5771C69.7917 30.8116 70.7925 31.8125 72.0271 31.8125L72.1813 31.8125C73.4158 31.8125 74.4167 30.8116 74.4167 29.5771L74.4167 25.6458 78.0504 25.6458 78.0504 38.4124C78.0575 39.7488 78.7704 40.9821 79.925 41.6553L89.0625 47.0411 89.0625 54.6723 79.7709 60.6848C78.6964 61.3764 78.048 62.5674 78.0504 63.8452L78.0504 78.0625 84.8052 78.0625 84.8052 65.898 90.2457 62.3737 101.758 62.3737 107.199 65.898 107.199 78.0625 113.953 78.0625 113.953 63.8476C113.956 62.5697 113.307 61.3787 112.233 60.6871L102.941 54.6746 102.941 47.0434 112.073 41.6607C113.231 40.9881 113.947 39.7521 113.953 38.4124L113.953 25.6458 117.583 25.6458 117.583 29.5771C117.583 30.8116 118.584 31.8125 119.819 31.8125L119.973 31.8125C121.207 31.8125 122.208 30.8116 122.208 29.5771L122.208 29.379C122.432 29.4562 122.666 29.4971 122.902 29.5L123.056 29.5C124.291 29.5 125.292 28.4991 125.292 27.2646L125.292 25.6458 126.833 25.6458C127.259 25.6458 127.604 25.3007 127.604 24.875 127.604 24.4493 127.259 24.1042 126.833 24.1042ZM69.0979 27.9583 68.9437 27.9583C68.5606 27.9583 68.25 27.6478 68.25 27.2646L68.25 22.4854C68.25 22.1022 68.5606 21.7917 68.9437 21.7917L69.0979 21.7917C69.4811 21.7917 69.7917 22.1022 69.7917 22.4854L69.7917 27.2646C69.7917 27.6478 69.4811 27.9583 69.0979 27.9583ZM72.875 29.5771C72.875 29.9603 72.5644 30.2708 72.1813 30.2708L72.0271 30.2708C71.6439 30.2708 71.3333 29.9603 71.3333 29.5771L71.3333 20.1729C71.3333 19.7897 71.6439 19.4792 72.0271 19.4792L72.1813 19.4792C72.5644 19.4792 72.875 19.7897 72.875 20.1729ZM107.199 25.6458 107.199 36.2556 98.4883 41.3801 93.511 41.3801 84.8052 36.2556 84.8052 25.6458ZM112.412 63.8476 112.412 76.5208 108.74 76.5208 108.74 65.0593 102.214 60.8321 89.7894 60.8321 83.2635 65.0593 83.2635 76.5208 79.592 76.5208 79.592 63.8476C79.5911 63.0929 79.9738 62.3896 80.608 61.9806L91.0143 55.2435 100.988 55.2435 111.394 61.9806C112.029 62.3888 112.413 63.0925 112.412 63.8476ZM101.4 53.7042 90.6042 53.7042 90.6042 47.2739C90.9045 46.9763 90.9067 46.4917 90.6092 46.1914 90.5618 46.1435 90.5083 46.1021 90.45 46.0683L80.702 40.3233C80.0195 39.927 79.5973 39.1993 79.592 38.4101L79.592 25.6458 83.2635 25.6458 83.2635 37.1374 93.0916 42.9187 98.9114 42.9187 108.74 37.1374 108.74 25.6458 112.412 25.6458 112.412 38.407C112.406 39.1996 111.982 39.9302 111.296 40.3271L101.572 46.059C101.205 46.2751 101.083 46.7475 101.299 47.1143 101.328 47.1552 101.362 47.1929 101.4 47.2269ZM120.667 29.5771C120.667 29.9603 120.356 30.2708 119.973 30.2708L119.819 30.2708C119.436 30.2708 119.125 29.9603 119.125 29.5771L119.125 20.1729C119.125 19.7897 119.436 19.4792 119.819 19.4792L119.973 19.4792C120.356 19.4792 120.667 19.7897 120.667 20.1729L120.667 29.5771ZM123.75 27.2646C123.75 27.6478 123.439 27.9583 123.056 27.9583L122.902 27.9583C122.519 27.9583 122.208 27.6478 122.208 27.2646L122.208 22.4854C122.208 22.1022 122.519 21.7917 122.902 21.7917L123.056 21.7917C123.439 21.7917 123.75 22.1022 123.75 22.4854Z" fill="#FFFFFF"/></g></svg>